<?xml version="1.0" encoding="utf-8"?>
<!-- Generator: Adobe Illustrator 27.5.0, SVG Export Plug-In . SVG Version: 6.00 Build 0)  -->
<svg version="1.1" id="Layer_1" xmlns="http://www.w3.org/2000/svg" xmlns:xlink="http://www.w3.org/1999/xlink" x="0px" y="0px"
	 viewBox="0 0 1244.1 828.3" style="enable-background:new 0 0 1244.1 828.3;" xml:space="preserve">
<style type="text/css">
	.st0{fill:#F27501;stroke:#F27501;stroke-width:24;stroke-miterlimit:10;}
	.st1{fill:#F5A83A;stroke:#F5A83A;stroke-width:24;stroke-miterlimit:10;}
</style>
<g>
	<path class="st0" d="M478,478.1L463.1,493l0.2,0.2L162.2,794.3c-8.3,8.3-19.3,12.9-31.1,12.9c-11.6,0-22.3-4.5-30.2-12.7
		c-7.7-8-11.9-18.6-11.8-29.8s4.5-21.7,12.4-29.6l271.8-272c4.1-4.1,6.2-9.5,6.2-14.9s-2-10.8-6.1-14.8l0,0l-272-272
		c-7.9-7.9-12.3-18.4-12.4-29.6c-0.3-11.2,3.9-21.8,11.7-29.8c7.9-8.2,18.6-12.7,30.2-12.7c11.7,0,22.8,4.6,31.1,12.9l316,316
		c8,8,12.4,18.6,12.4,30C490.4,459.5,486,470.1,478,478.1z"/>
</g>
<g>
	<path class="st0" d="M800.5,478.1L785.6,493l0.2,0.2L484.7,794.3c-8.3,8.3-19.3,12.9-31.1,12.9c-11.6,0-22.3-4.5-30.2-12.7
		c-7.7-8-11.9-18.6-11.8-29.8s4.5-21.7,12.4-29.6l271.7-272c4.1-4.1,6.2-9.5,6.2-14.9s-2-10.8-6.1-14.8l0,0l-271.9-272
		c-7.9-7.9-12.3-18.4-12.4-29.6c-0.1-11.2,4.1-21.8,11.8-29.8c7.9-8.2,18.6-12.7,30.2-12.7c11.7,0,22.8,4.6,31.1,12.9l316,316
		c8,8,12.4,18.6,12.4,30C812.9,459.5,808.5,470.1,800.5,478.1z"/>
</g>
<g>
	<path class="st1" d="M487.2,405.4l-14.9,14.8l0.2,0.2L171.4,721.6c-8.3,8.3-19.3,12.9-31.1,12.9c-11.6,0-22.3-4.5-30.2-12.7
		c-7.7-8-11.9-18.6-11.8-29.8s4.5-21.7,12.4-29.6l271.8-272c4.1-4.1,6.2-9.5,6.2-14.9s-2-10.8-6.1-14.8l0,0l-272-272
		c-8.1-7.9-12.5-18.4-12.6-29.6s4.1-21.7,11.9-29.8c7.9-8.2,18.6-12.7,30.2-12.7c11.7,0,22.8,4.6,31.1,12.9l316,316
		c8,8,12.4,18.6,12.4,30C499.6,386.8,495.2,397.4,487.2,405.4z"/>
</g>
<g>
	<path class="st1" d="M809.7,405.4l-14.9,14.8l0.2,0.2L493.9,721.6c-8.3,8.3-19.3,12.9-31.1,12.9c-11.6,0-22.3-4.5-30.2-12.7
		c-7.7-8-11.9-18.6-11.8-29.8s4.5-21.7,12.4-29.6l271.8-272c4.1-4.1,6.2-9.5,6.2-14.9s-2-10.8-6.1-14.8l0,0l-272-272
		c-7.9-7.9-12.3-18.4-12.4-29.6s4.1-21.8,11.8-29.8c7.9-8.2,18.6-12.7,30.2-12.7c11.7,0,22.8,4.6,31.1,12.9l316,316
		c8,8,12.4,18.6,12.4,30C822.1,386.8,817.7,397.4,809.7,405.4z"/>
</g>
</svg>
